<?xml version="1.0" standalone="no"?>
<!DOCTYPE svg PUBLIC "-//W3C//DTD SVG 1.1//EN" "http://www.w3.org/Graphics/SVG/1.1/DTD/svg11.dtd" >
<svg xmlns="http://www.w3.org/2000/svg" xmlns:xlink="http://www.w3.org/1999/xlink" version="1.1">
<metadata>
Created by FontForge 20161116 at Sun Oct  2 18:46:50 2005
 By Jimmy Wärting
Copyright (c)  M. Klein  9.05
</metadata>
<defs>
<font id="BlaxSlabXXL" horiz-adv-x="485" >
  <font-face 
    font-family="BlaxSlabXXL"
    font-weight="500"
    font-stretch="normal"
    units-per-em="1000"
    panose-1="2 0 6 6 2 0 0 2 0 3"
    ascent="800"
    descent="-200"
    x-height="436"
    cap-height="646"
    bbox="-177 -213 1200 845"
    underline-thickness="48"
    underline-position="-119"
    unicode-range="U+0005-2122"
  />
<missing-glyph horiz-adv-x="500" 
 />
    <glyph glyph-name=".notdef" horiz-adv-x="500" 
 />
    <glyph glyph-name="breve" horiz-adv-x="277" 
d="M295 503h-98l-58 -56l-57 56h-100l107 -131h102z" />
    <glyph glyph-name="ring" horiz-adv-x="378" 
d="M285 484q0 19 -7 36.5t-20.5 31.5t-32 22.5t-40.5 8.5h-1q-39 -4 -65 -32t-26 -65q0 -18 6 -33q11 -32 35.5 -47t53.5 -15q31 0 61 19q36 33 36 74zM213 485q0 -17 -15 -24q-2 0 -4 -0.5t-5 -0.5q-11 0 -17.5 8t-6.5 18q0 8 4.5 14.5t15.5 9.5l4 1l-2 -1q2 0 10 -2
q16 -9 16 -23z" />
    <glyph glyph-name="dotlessi" unicode="&#xd;" horiz-adv-x="243" 
d="M239 0v140h-36v297h-199v-142h36v-157h-34v-138h233z" />
    <glyph glyph-name="fraction" horiz-adv-x="144" 
d="M321 642h-102l-396 -642h99z" />
    <glyph glyph-name="fi" horiz-adv-x="482" 
d="M375 539v2v1q-2 16 -14 27.5t-27 11.5h-3q-16 -2 -27 -14t-11 -28v-4q2 -17 14 -27.5t28 -10.5h3q16 0 26.5 12.5t10.5 29.5zM473 0v149h-39v293h-211v51l50 2v149h-155q-33 0 -51 -26.5t-18 -59.5v-117h-40v-147h40v-148h-40v-146h464zM258 147l-35 -1v146l35 1v-146z
" />
    <glyph glyph-name="fl" horiz-adv-x="483" 
d="M476 0v144h-38v500h-321q-34 0 -52 -26.5t-18 -59.5v-117h-40v-147h40v-148h-40v-146h469zM260 144l-38 1v147h27v149h-28v51l39 -1v-347z" />
    <glyph glyph-name="space" unicode=" " horiz-adv-x="200" 
 />
    <glyph glyph-name="exclam" unicode="!" horiz-adv-x="205" 
d="M163 186v460h-121v-460h121zM173 65q0 16 -7.5 30t-19.5 25v1q-20 14 -44 14q-31 0 -54 -26q-16 -20 -16 -44q0 -34 28 -54q9 -7 20.5 -11.5t23.5 -4.5q32 0 54 28q15 19 15 42z" />
    <glyph glyph-name="quotedbl" unicode="&#x22;" horiz-adv-x="312" 
d="M326 575h-109l-92 -210h108zM188 580h-110l-92 -213h109z" />
    <glyph glyph-name="numbersign" unicode="#" horiz-adv-x="536" 
d="M516 461h-70l43 171h-122l-39 -171h-40l42 171h-119l-39 -171h-93l-21 -107h89l-20 -81h-81l-26 -108h83l-41 -167h114l44 167h41l-46 -167h119l42 167h78l22 108h-74l21 81h70zM302 352l-18 -81h-42l20 81h40z" />
    <glyph glyph-name="dollar" unicode="$" horiz-adv-x="487" 
d="M486 136v146q0 22 -8 41t-21.5 34.5t-31 27t-36.5 17.5h-110v93h14v-67h180v224h-192v58h-74v-58h-95q-41 -10 -71 -37t-40 -72v-164q0 -22 8.5 -42t23 -36.5t33.5 -27.5t41 -15h101v-101h-14v63h-187v-220h201v-62h69v62h118q42 17 66.5 54.5t24.5 81.5zM207 402h-13v90
h14zM293 151h-14v109h14v-109z" />
    <glyph glyph-name="percent" unicode="%" horiz-adv-x="820" 
d="M814 71v246q-11 25 -27.5 47.5t-45.5 27.5h-211q-38 -14 -59 -42l124 294h-94l-132 -315v12v205q-3 34 -27 56.5t-58 30.5l-196 2q-14 -2 -28.5 -9t-26.5 -18t-19.5 -25.5t-7.5 -30.5v-238q8 -29 26 -47.5t45 -30.5h214q34 11 52 31l-114 -271h95l134 320q-1 -1 -1 -5
v-246q7 -20 23.5 -38t41.5 -29h208q29 0 52.5 20.5t31.5 52.5zM652 125h-29v127h29v-127zM200 368h-27v128h27v-128z" />
    <glyph glyph-name="ampersand" unicode="&#x26;" horiz-adv-x="573" 
d="M572 105l-115 119l73 74l-92 95l-73 -73l-33 34l49 53l-2 -1q11 9 12.5 19t1.5 19v162q-11 12 -21 23t-27 17h-244q-19 -8 -33.5 -23t-14.5 -36v-166l9 -20l62 -62l-110 -108q-13 -20 -13 -39q0 -16 7 -33q35 -41 75 -80t81 -75q2 0 6.5 -0.5t7.5 -0.5q5 -1 9 -1.5
t12 -0.5q15 0 32 7l109 106l119 -122zM259 471l-20 -24l-26 28v45h46v-49zM254 205l-35 -35l-37 36l35 38z" />
    <glyph glyph-name="quotesingle" unicode="'" horiz-adv-x="140" 
d="M158 577h-99l-77 -211h93z" />
    <glyph glyph-name="parenleft" unicode="(" horiz-adv-x="269" 
d="M251 -167v168q-32 11 -47.5 39t-17.5 58q-2 29 -2 58v58q0 46 1.5 91.5t6.5 92.5v-1q4 22 16 40.5t31 27.5l10 17v159q-41 -2 -77 -20t-64.5 -46.5t-47.5 -64.5t-26 -74q-8 -54 -11 -107t-3 -110q0 -35 2 -71t6 -71q3 -41 16.5 -80.5t36 -73t54 -58.5t71.5 -37
q1 0 -1 -0.5l-2 -0.5h3h15q2 0 9 0.5t21 5.5z" />
    <glyph glyph-name="parenright" unicode=")" horiz-adv-x="269" 
d="M249 228q0 56 -3.5 110t-12.5 107q-6 37 -25 73t-47.5 64.5t-64.5 47t-76 21.5v-173q24 -11 39 -30t19 -42v2q5 -47 6.5 -92.5t1.5 -91.5q0 -29 -1 -58.5t-3 -58.5t-15 -57.5t-44 -39.5v-174q14 -5 19 -2.5t8 2.5h7t8 2q40 11 71 36t53.5 58.5t35.5 73t17 80.5
q3 35 5 70.5t2 71.5z" />
    <glyph glyph-name="asterisk" unicode="*" horiz-adv-x="427" 
d="M410 420l-55 132l-93 -51l21 115h-145l21 -114l-93 54l-49 -136l114 -13l-88 -84l121 -79l47 97l52 -96l118 81l-87 81z" />
    <glyph glyph-name="plus" unicode="+" horiz-adv-x="534" 
d="M501 209v119h-169v207h-128v-207h-171v-119h171v-187h128v187h169z" />
    <glyph glyph-name="comma" unicode="," horiz-adv-x="216" 
d="M208 146h-142l-58 -225h102z" />
    <glyph glyph-name="hyphen" unicode="-" horiz-adv-x="270" 
d="M253 211v102h-236v-102h236z" />
    <glyph glyph-name="period" unicode="." horiz-adv-x="205" 
d="M181 65q0 16 -7.5 30t-19.5 25v1q-20 14 -44 14q-31 0 -54 -26q-16 -20 -16 -44q0 -34 28 -54q9 -7 20.5 -11.5t23.5 -4.5q32 0 54 28q15 19 15 42z" />
    <glyph glyph-name="slash" unicode="/" horiz-adv-x="279" 
d="M287 644h-87l-208 -646h85z" />
    <glyph glyph-name="zero" unicode="0" 
d="M473 135v413q0 19 -9.5 35t-25 28.5t-35.5 21.5t-40 13h-249q-19 -3 -36 -13t-30 -24t-22.5 -32t-13.5 -36v-435q0 -20 9 -38t24 -32t35 -23t42 -11l241 -2q27 0 47.5 12.5t34.5 32t21 43.5t7 47zM270 162h-53v318h54z" />
    <glyph glyph-name="one" unicode="1" horiz-adv-x="473" 
d="M414 0v164h-39v482h-185l-131 -123l72 -120l45 41v-280h-42v-164h280z" />
    <glyph glyph-name="two" unicode="2" horiz-adv-x="486" 
d="M477 0v166h-155l153 144v206q-3 24 -10.5 46t-21 39.5t-33 29.5t-46.5 15l-219 2q-50 -6 -82 -30t-42 -78v-169h192v116h61v-127q-60 -67 -125.5 -130t-139.5 -123v-107h468z" />
    <glyph glyph-name="three" unicode="3" 
d="M476 520v126h-452v-223h178v62h55l-89 -120v-99l97 -1v-103h-60v73h-196v-132q23 -81 104 -101h245q47 13 77.5 44.5t30.5 82.5v186q-8 30 -23.5 55t-43.5 35z" />
    <glyph glyph-name="four" unicode="4" horiz-adv-x="486" 
d="M482 193v150h-62v303h-198l-218 -290v-163h225v-31h-35v-162h265v162h-37v31h60zM228 343h-55l56 70z" />
    <glyph glyph-name="five" unicode="5" horiz-adv-x="484" 
d="M469 110v245q-5 21 -17 39t-28.5 31.5t-36 22t-38.5 11.5h-136v30h240v159h-438v-366h256v-118h-56v84h-198q1 -44 1.5 -71t1 -42t0.5 -22v-8q6 -21 17 -40t26 -33.5t34 -23t40 -8.5h225q21 3 39.5 12.5t32.5 24t23.5 33.5t11.5 40z" />
    <glyph glyph-name="six" unicode="6" 
d="M472 104v209q-12 38 -42 64.5t-68 31.5h-144v74h55v-62h189v119q-8 42 -39.5 71.5t-72.5 34.5l-221 2q-25 -3 -46.5 -13.5t-37 -28t-24 -39.5t-8.5 -47q0 -13 1 -18v-397q10 -35 34 -64.5t61 -40.5h249q43 4 75 33t39 71zM273 162h-53v85h53v-85z" />
    <glyph glyph-name="seven" unicode="7" horiz-adv-x="486" 
d="M481 537v111h-476v-240h189v75h66l-177 -483l218 2z" />
    <glyph glyph-name="eight" unicode="8" 
d="M473 109v123q-9 31 -23 56t-37 43q22 14 36.5 35t19.5 49v128q-13 42 -40 70t-69 33h-237q-50 -8 -80.5 -41t-30.5 -85v-104q6 -29 21 -50t37 -35q-23 -17 -38.5 -40.5t-18.5 -52.5v-124q11 -40 36.5 -73.5t71.5 -38.5l238 -2q21 0 40 9.5t33.5 25t25 35t15.5 39.5z
M271 407h-57v71h58zM272 160h-56v85h56v-85z" />
    <glyph glyph-name="nine" unicode="9" 
d="M473 129v408q-11 42 -39 70.5t-70 38.5l-225 2q-48 -5 -84 -32t-43 -81v-176q0 -24 9 -44t24.5 -35.5t35.5 -25.5t42 -12h149v-78h-56v65h-191v-112q0 -24 10 -45.5t27 -37t39.5 -25t47.5 -9.5h206q45 12 78.5 45t39.5 84zM271 397h-57v84h58z" />
    <glyph glyph-name="colon" unicode=":" horiz-adv-x="206" 
d="M179 360q0 33 -22 58q-23 24 -53 24q-14 0 -28.5 -6t-25.5 -18q-22 -23 -22 -57t23 -59q11 -13 25.5 -19.5t28.5 -6.5q29 0 52 25q11 12 16.5 27.5t5.5 31.5zM179 73q0 35 -22 60q-23 24 -54 24q-14 0 -28 -6t-25 -18q-11 -13 -16 -28t-5 -31q0 -34 22 -57q22 -25 53 -25
q32 0 53 23q22 24 22 58z" />
    <glyph glyph-name="semicolon" unicode=";" horiz-adv-x="225" 
d="M199 360q0 33 -22 58q-23 24 -53 24q-14 0 -28.5 -6t-25.5 -18q-22 -23 -22 -57t23 -59q11 -13 25.5 -19.5t28.5 -6.5q29 0 52 25q11 12 16.5 27.5t5.5 31.5zM208 146h-142l-58 -225h102z" />
    <glyph glyph-name="less" unicode="&#x3c;" horiz-adv-x="268" 
d="M256 51l-100 157l99 159h-142l-101 -159l101 -157h143z" />
    <glyph glyph-name="equal" unicode="=" horiz-adv-x="379" 
d="M365 267v86h-350v-86h350zM365 145v81h-350v-81h350z" />
    <glyph glyph-name="greater" unicode="&#x3e;" horiz-adv-x="268" 
d="M256 206l-102 161h-142l102 -162l-102 -154h144z" />
    <glyph glyph-name="question" unicode="?" horiz-adv-x="349" 
d="M343 348v227q-6 25 -21.5 43t-44.5 26h-215q-20 -4 -34 -21t-22 -36v-125h135v49h29v-87h-104v-240h140v83h72q31 5 46 28.5t19 52.5zM212 65q0 31 -26 55v1q-20 14 -44 14q-31 0 -54 -26q-16 -20 -16 -44q0 -34 28 -54q9 -7 20.5 -11.5t23.5 -4.5q32 0 54 28
q15 19 15 42h-1z" />
    <glyph glyph-name="at" unicode="@" horiz-adv-x="669" 
d="M632 330q0 60 -25.5 109t-67.5 87q-41 36 -90 54t-103 18q-66 0 -123 -25t-99 -69t-66.5 -103.5t-24.5 -129.5t25 -129.5t68 -103t101 -68t124 -24.5t127 20t112 47l-92 74q-20 -13 -57.5 -24.5t-83.5 -11.5q-47 0 -86.5 15.5t-69 44t-46 69.5t-16.5 91q0 48 15 88.5
t42 70t65 46t83 16.5q43 0 80 -13.5t63 -39.5h-70l-4 -23q-35 29 -85 29q-40 0 -72 -17.5t-55 -46t-35.5 -65t-12.5 -75.5q0 -33 12.5 -62.5t32.5 -51.5t46.5 -34.5t55.5 -12.5q31 0 54.5 9.5t40.5 23.5q9 -14 22.5 -23.5t30.5 -9.5h4q32 0 66 18t63 57q24 32 37.5 78
t13.5 97zM536 304q0 -22 -6 -42.5t-15 -37t-19 -27t-19 -13.5q1 0 1 1q0 4 1.5 11.5t2.5 15.5q0 3 1 5v-2l35 181q18 -33 18 -81v-11zM380 279q0 -4 -1 -8v-1q-2 -12 -6 -25t-11 -23.5t-17 -17t-24 -6.5q-20 0 -31 16.5t-11 38.5q0 13 4.5 26.5t12.5 24t19 17t24 6.5
q19 0 30 -13t11 -35z" />
    <glyph glyph-name="A" unicode="A" horiz-adv-x="591" 
d="M585 0v166h-45l-94 480h-307l-86 -482h-47v-164h237l20 149h72l17 -149h233zM315 295h-36l17 117z" />
    <glyph glyph-name="B" unicode="B" horiz-adv-x="538" 
d="M525 458q0 30 -4.5 63t-16.5 60t-32.5 44.5t-52.5 17.5h-1l-405 -2v-155l44 -2v-321l-43 -2v-161l417 2q23 0 40.5 11t29.5 29t17.5 40t5.5 43l-2 128q-6 25 -21 44.5t-35 33.5q23 13 37.5 35t20.5 51q1 8 1 18v23zM318 402h-57v76h57v-76zM320 159h-59v90h59v-90z" />
    <glyph glyph-name="C" unicode="C" horiz-adv-x="469" 
d="M457 0v262h-187v-96h-55v319h55v-72h180v235h-322q-24 0 -45 -9.5t-36.5 -26t-25 -38.5t-9.5 -46v-374q0 -28 7.5 -55.5t22 -49t36 -34.5t49.5 -13z" />
    <glyph glyph-name="D" unicode="D" horiz-adv-x="541" 
d="M523 105v420q0 21 -7.5 42.5t-21 39t-33 28.5t-42.5 11l-401 2v-165h45v-320l-43 -2v-161l402 2q21 0 39.5 8t32 22.5t21.5 33t8 39.5zM322 162h-56v318h57z" />
    <glyph glyph-name="E" unicode="E" horiz-adv-x="527" 
d="M508 0v234h-186v-70h-58v91h131v153l-131 -1v76h59v-56h176v219h-480v-163h43v-319h-43v-164h489z" />
    <glyph glyph-name="F" unicode="F" horiz-adv-x="504" 
d="M498 413v235h-492v-165h44v-319h-44v-164h289v164h-42v90l128 1v145h-128v81h58v-68h187z" />
    <glyph glyph-name="G" unicode="G" 
d="M479 0v405h-235v-163h40v-78h-59v317h62v-49h184v214h-336q-28 0 -49 -13.5t-35.5 -35.5t-22 -48.5t-7.5 -51.5v-360q0 -26 7.5 -50.5t22 -43.5t36.5 -30t51 -11z" />
    <glyph glyph-name="H" unicode="H" horiz-adv-x="589" 
d="M571 0v164h-46v317h46v165h-251v-237h-55v237h-247v-163h41v-319h-41v-164h247v242h55v-242h251z" />
    <glyph glyph-name="I" unicode="I" horiz-adv-x="306" 
d="M289 0v164h-39v317h38v165h-271v-165h41v-319h-36v-162h267z" />
    <glyph glyph-name="J" unicode="J" horiz-adv-x="503" 
d="M494 483v165h-331v-165h80v-317h-35v101h-199v-132q0 -25 7 -48.5t20 -42.5t32.5 -30.5t45.5 -11.5l220 -2q19 0 39 7.5t36.5 21t27 32.5t10.5 43v379h47z" />
    <glyph glyph-name="K" unicode="K" horiz-adv-x="590" 
d="M575 0v166h-41v219h-98l54 96l69 3v164h-197l-93 -194v194h-254v-163h42v-319h-42v-166h254v234h54v-234h252z" />
    <glyph glyph-name="L" unicode="L" horiz-adv-x="521" 
d="M505 0v271h-199v-105h-37v317h71v165h-324v-163h45v-319h-43v-166h487z" />
    <glyph glyph-name="M" unicode="M" horiz-adv-x="786" 
d="M765 0v166h-43v316l38 2v164h-226l-139 -244l-142 244h-232v-165h43v-320l-41 -2v-161h243v274q11 -17 21.5 -32t21.5 -32q10 -15 22.5 -34t25 -38.5t25 -38.5t22.5 -34l119 210v-275h242z" />
    <glyph glyph-name="N" unicode="N" horiz-adv-x="644" 
d="M625 484v162h-241v-247l-133 249h-232v-165h45v-319h-45v-164h243v253l132 -251l190 -2v482z" />
    <glyph glyph-name="O" unicode="O" horiz-adv-x="484" 
d="M470 129v407q0 23 -9 43t-24 35t-35 23.5t-43 8.5h-222q-21 0 -43 -7.5t-39.5 -21.5t-29 -33.5t-11.5 -44.5v-434q0 -23 9 -42t24.5 -33t35.5 -22t42 -8h240q24 0 43.5 11.5t33 29.5t21 41t7.5 47zM269 162h-54v318h55z" />
    <glyph glyph-name="P" unicode="P" horiz-adv-x="537" 
d="M520 351v191q0 22 -9 41t-24 32.5t-34.5 21t-40.5 7.5l-395 -3v-162h43v-314l-43 -2v-163h288v163l-42 2v78h154q21 0 40 8.5t33 23.5t22 34.5t8 41.5zM319 386h-56v88h57z" />
    <glyph glyph-name="Q" unicode="Q" 
d="M472 113v408q0 28 -9.5 51.5t-26.5 41t-39.5 27t-47.5 9.5h-196q-28 0 -53 -10t-44.5 -28t-31 -42.5t-11.5 -52.5v-385q0 -24 7 -48t20 -42.5t32 -30t44 -11.5h125l30 -78h129l-30 78h4q21 0 39 9.5t31 25.5t20.5 36.5t7.5 41.5zM271 163h-53v319h53v-319z" />
    <glyph glyph-name="R" unicode="R" horiz-adv-x="589" 
d="M571 0v163l-43 2l-3 71q-2 32 -16 54t-39 36q22 14 37.5 35t17.5 51l4 101v5q0 27 -10.5 50.5t-28.5 41t-41.5 28t-49.5 10.5h-381v-164l41 -2v-319l-41 -2v-161h248v247h59v-171q0 -13 4 -26.5t12 -24.5t20 -18t28 -7h182zM323 398h-58v80h58v-80z" />
    <glyph glyph-name="S" unicode="S" horiz-adv-x="502" 
d="M484 119v161q0 24 -8 47t-23 40t-35.5 27.5t-45.5 10.5h-150v78h59v-54h183v217h-316q-25 0 -48.5 -8t-41.5 -23t-29 -36t-11 -47v-144q0 -26 9 -50.5t25 -43.5t38 -30.5t49 -11.5h142v-86h-55v59h-196v-225h340q23 0 43.5 9.5t36.5 26t25 38t9 45.5z" />
    <glyph glyph-name="T" unicode="T" horiz-adv-x="591" 
d="M581 384v262h-571v-260h161v97h22v-319h-37v-164h285v164h-40v319h21v-99h159z" />
    <glyph glyph-name="U" unicode="U" horiz-adv-x="573" 
d="M563 483v163h-248v-482h-56v482h-249v-163h42v-354q0 -26 9 -49.5t24.5 -41t37.5 -28t48 -10.5h236q26 0 47.5 13t36.5 33t23.5 44t8.5 47v346h40z" />
    <glyph glyph-name="V" unicode="V" horiz-adv-x="591" 
d="M582 481v165h-289v-163h37l-38 -197l-66 360h-217v-163h44l100 -483h272l111 481h46z" />
    <glyph glyph-name="W" unicode="W" horiz-adv-x="889" 
d="M875 481v165h-295v-165h43l-21 -166l-77 333h-163l-72 -340l-29 175h47v165h-294v-165h41l88 -483h245l60 284l66 -284h237l81 481h43z" />
    <glyph glyph-name="X" unicode="X" horiz-adv-x="572" 
d="M561 0v164h-51l-102 166l94 151h52v165h-243v-105l-21 -33l-83 138h-187v-163h48l104 -157l-109 -162h-52v-164h244v99l29 54l92 -153h185z" />
    <glyph glyph-name="Y" unicode="Y" horiz-adv-x="523" 
d="M520 480v166h-193l-64 -156l-59 156h-201v-163h56l102 -215v-104h-41v-164h286v164h-40v111l103 205h51z" />
    <glyph glyph-name="Z" unicode="Z" horiz-adv-x="519" 
d="M491 0v227h-174v-61h-42l204 343v137h-446v-212h167v47h34l-206 -339v-142h463z" />
    <glyph glyph-name="bracketleft" unicode="[" horiz-adv-x="269" 
d="M250 -174v164h-69v494h69v165h-117q-23 0 -43.5 -11t-35.5 -28t-24 -39.5t-9 -44.5l-2 -559q0 -27 8.5 -52.5t23.5 -45t35.5 -31.5t45.5 -12h118z" />
    <glyph glyph-name="backslash" unicode="\" horiz-adv-x="535" 
d="M522 -8l-393 617h-116l398 -617h111z" />
    <glyph glyph-name="bracketright" unicode="]" horiz-adv-x="269" 
d="M250 -29l-1 560q0 22 -9 44t-24.5 39.5t-36 28.5t-43.5 11h-117v-167h70v-492h-70v-164h119q25 0 45.5 11.5t35.5 31t23 45t8 52.5z" />
    <glyph glyph-name="asciicircum" unicode="^" horiz-adv-x="277" 
d="M299 358l-107 110h-105l-109 -110h96l64 41l64 -41h97z" />
    <glyph glyph-name="underscore" unicode="_" horiz-adv-x="542" 
d="M560 -213v41h-578v-41h578z" />
    <glyph glyph-name="grave" unicode="`" horiz-adv-x="258" 
d="M234 372l-70 131h-140l127 -131h83z" />
    <glyph glyph-name="a" unicode="a" horiz-adv-x="416" 
d="M412 0v142h-40v214q0 32 -20.5 56t-53.5 24h-204q-29 0 -52.5 -19t-23.5 -50v-105l151 10v34h33v-45h-110q-16 0 -32 -5t-28.5 -14.5t-20 -23t-7.5 -30.5v-110q0 -14 4 -27.5t12.5 -25t20 -18.5t26.5 -7h115l20 18v-18h210zM202 132h-34v34h34v-34z" />
    <glyph glyph-name="b" unicode="b" horiz-adv-x="416" 
d="M409 82v271q0 16 -5.5 31t-15.5 27t-23.5 19t-29.5 7h-99l-18 -16v225h-211v-147h37v-352l-34 -2v-145h209v29l20 -29h100q16 0 29 7t22 19t14 26.5t5 29.5zM236 142h-18v147h19z" />
    <glyph glyph-name="c" unicode="c" horiz-adv-x="362" 
d="M354 257v103q0 18 -8.5 32.5t-22 24t-29.5 14.5t-32 5h-174q-19 0 -34 -8.5t-25 -22.5t-15.5 -31.5t-5.5 -36.5v-261q0 -34 24.5 -55t56.5 -21h182q13 0 27.5 3.5t25.5 11.5t18.5 19.5t7.5 28.5v120h-152v-39h-18v151h18v-38h156z" />
    <glyph glyph-name="d" unicode="d" horiz-adv-x="416" 
d="M410 0v146h-39v500h-208v-150h35v-75l-20 18h-95q-18 0 -32 -8.5t-23 -22t-14 -31t-5 -34.5l-3 -267v-1q0 -23 10.5 -38t27 -24t38 -13t43.5 -4q23 0 51 5l22 20v-21h212zM198 144h-18v147h18v-147z" />
    <glyph glyph-name="e" unicode="e" horiz-adv-x="397" 
d="M388 76v66h-200v26h200v188q0 20 -8.5 35t-22 25t-31 15t-35.5 5h-205q-18 0 -32.5 -8.5t-24.5 -22.5t-15 -31t-5 -33v-246q0 -19 6.5 -36.5t18.5 -30.5t28.5 -20.5t36.5 -7.5h219q14 0 27 6.5t22.5 17t15 24t5.5 28.5zM219 269h-33v34h34z" />
    <glyph glyph-name="f" unicode="f" horiz-adv-x="256" 
d="M253 292v149h-49v52l48 1v150h-145q-32 0 -49 -26.5t-17 -59.5v-117h-37v-147h38v-148h-38v-146h237v146h-36v146h48z" />
    <glyph glyph-name="g" unicode="g" horiz-adv-x="416" 
d="M412 291v146h-216v-19l-21 19h-91q-19 0 -34 -9t-25 -23t-15.5 -32t-5.5 -36v-240q0 -14 12.5 -36t32.5 -38q12 -9 26 -12t28 -4t25.5 -1.5t18.5 -2.5h-131v-82q0 -31 20.5 -56t54.5 -25h206q16 0 30 8t23.5 20.5t15 27.5t5.5 29v366h41zM201 145h-22v145h23zM199 -32
h-23v32h-2l26 17z" />
    <glyph glyph-name="h" unicode="h" horiz-adv-x="459" 
d="M452 0v144h-37v195q0 41 -22 70.5t-60 29.5h-99l-14 -14v217h-219v-144h41v-352h-39v-146h216v291h19v-291h214z" />
    <glyph glyph-name="i" unicode="i" horiz-adv-x="242" 
d="M181 537v7q-3 30 -23.5 51.5t-48.5 21.5h-6q-29 -3 -47.5 -25.5t-18.5 -53.5v-6q3 -32 23 -53t48 -21h5q14 0 26.5 6.5t21.5 18t14.5 25.5t5.5 29zM239 0v144h-36v295h-200v-148h36v-147h-36v-144h236z" />
    <glyph glyph-name="j" unicode="j" horiz-adv-x="216" 
d="M196 534v8q0 32 -18.5 55.5t-47.5 26.5h-8q-29 0 -48.5 -20.5t-22.5 -52.5v-8q0 -32 18.5 -55.5t47.5 -27.5h7q27 0 48 21t24 53zM209 -22v461h-201v-148h36v-313h-36v-144h187l13 20v124h1z" />
    <glyph glyph-name="k" unicode="k" horiz-adv-x="453" 
d="M452 0v144h-38v127h-66l12 21h77v147h-164l-56 -105v308h-215v-143h41v-353h-42v-146h217v141h21v-141h213z" />
    <glyph glyph-name="l" unicode="l" horiz-adv-x="242" 
d="M239 0v144h-36v500h-200v-148h36v-352h-36v-144h236z" />
    <glyph glyph-name="m" unicode="m" horiz-adv-x="661" 
d="M659 0v142h-41v209q0 27 -11 44.5t-29 27.5t-40 13.5t-44 3.5h-33q-8 3 -17.5 -1t-18 -11t-14.5 -14t-6 -10q-8 11 -19.5 20.5t-27.5 13.5h-115l-21 -22v20h-220v-138h41v-298h179v295h18v-295h182v293h21v-293h216z" />
    <glyph glyph-name="n" unicode="n" horiz-adv-x="453" 
d="M450 0v140h-39v225q-8 26 -28 45t-46 26h-94l-27 -25v25h-213v-141h38v-295h177v292h19v-292h213z" />
    <glyph glyph-name="o" unicode="o" horiz-adv-x="382" 
d="M372 87v246q0 21 -8 40t-21.5 33t-32 22.5t-39.5 8.5h-173q-17 0 -33 -6.5t-28 -18t-19.5 -27t-7.5 -33.5v-259q0 -18 6 -34.5t17.5 -29.5t27 -21t33.5 -8h191q36 0 61.5 22.5t25.5 64.5zM199 137h-19v157h20z" />
    <glyph glyph-name="p" unicode="p" horiz-adv-x="416" 
d="M413 92v264q0 33 -22 53.5t-50 28.5h-94l-29 -25v25h-215v-144h42v-316l-42 -2v-140h251v140l-36 2v41l22 -19h105q38 7 53 31.5t15 60.5zM235 142h-17v147h18z" />
    <glyph glyph-name="q" unicode="q" horiz-adv-x="432" 
d="M419 -160v140h-39v312h39v145h-215v-19l-21 19h-112q-26 -14 -42.5 -37.5t-16.5 -54.5v-261q0 -32 19 -55.5t55 -27.5h99l22 14v-35h-37v-140h249zM207 155h-18v135h18v-135z" />
    <glyph glyph-name="r" unicode="r" horiz-adv-x="382" 
d="M374 235v153q0 21 -14 36.5t-35 15.5h-93l-14 -14v14h-210v-141h37v-157h-37v-142h247v142h-37v156h15v-63h141z" />
    <glyph glyph-name="s" unicode="s" horiz-adv-x="397" 
d="M387 78v170l-126 34h119v154h-292q-35 0 -56.5 -27t-21.5 -61v-156l135 -35h-135v-157h303q31 0 52.5 23t21.5 55zM219 294l-36 10l-18 4h54v-14zM244 128h-64v20l36 -10q2 -2 7.5 -4.5t7.5 -2.5z" />
    <glyph glyph-name="t" unicode="t" horiz-adv-x="241" 
d="M237 0v145h-36v150h36v146h-34v127l-166 -30v-97h-33v-145h34v-296h199z" />
    <glyph glyph-name="u" unicode="u" horiz-adv-x="453" 
d="M451 0v142h-38v294h-177v-292h-20v292h-214v-141h40v-202q0 -15 3.5 -31.5t11 -30t20.5 -22.5t31 -9h110l19 18v-18h214z" />
    <glyph glyph-name="v" unicode="v" horiz-adv-x="418" 
d="M421 299v139h-186l-26 -160l-27 158h-185v-141h36l67 -295h219l64 299h38z" />
    <glyph glyph-name="w" unicode="w" horiz-adv-x="649" 
d="M640 293v143h-184l-20 -161l-37 161h-145l-34 -156l-19 156h-192v-141h40l51 -295h196l33 124l35 -124h193l47 293h36z" />
    <glyph glyph-name="x" unicode="x" horiz-adv-x="398" 
d="M392 0v142h-47l-44 81l44 70h47v143h-156l-38 -64l-39 64h-153v-141h47l44 -71l-48 -82h-43v-142h157l37 64l37 -64h155z" />
    <glyph glyph-name="y" unicode="y" horiz-adv-x="418" 
d="M422 291v146h-188l-26 -155l-24 155h-188v-146h40l84 -287l-4 -21h-43v-143h184l126 451h39z" />
    <glyph glyph-name="z" unicode="z" horiz-adv-x="397" 
d="M389 0v173h-125l123 144v119h-374v-169h124l-129 -154v-113h381zM162 298l-26 -30v30h26zM265 138h-30l30 36v-36z" />
    <glyph glyph-name="braceleft" unicode="{" horiz-adv-x="287" 
d="M269 -161v94h-74v302q0 26 -12.5 45t-28.5 33q17 14 29 33.5t12 48.5v300h74v95h-113q-17 0 -32 -8t-25.5 -21t-16.5 -30.5t-6 -36.5v-295q0 -17 -9 -27.5t-21 -10.5q-3 0 -7.5 0.5t-20.5 5.5v-107q3 0 13.5 -0.5t15.5 -0.5q7 0 13 -1.5t10 -6.5t6.5 -15.5t2.5 -29.5
v-274q0 -39 20.5 -66t53.5 -27h116z" />
    <glyph glyph-name="bar" unicode="|" horiz-adv-x="383" 
d="M231 -10v792h-79v-792h79z" />
    <glyph glyph-name="braceright" unicode="}" horiz-adv-x="287" 
d="M270 279v88q-16 -5 -21 -5.5t-7 -0.5q-14 0 -22.5 10.5t-8.5 27.5v295q0 19 -6 36.5t-16.5 30.5t-25 21t-32.5 8h-114v-95h76v-300q0 -29 11.5 -48.5t28.5 -33.5q-17 -14 -29 -33t-12 -45v-302h-75v-94h119q33 0 52.5 27t19.5 66v274q0 18 2 28.5t6.5 16t10.5 7t14 1.5
q2 0 5.5 0.5t6.5 0.5z" />
    <glyph glyph-name="asciitilde" unicode="~" horiz-adv-x="282" 
d="M310 484h-69q-8 -14 -19 -22t-26 -8h-5q-8 0 -14 2.5t-14 5.5l1 -1q-10 5 -20 9t-24 4h-6q-25 0 -49 -6.5t-43.5 -19.5t-32.5 -32.5t-17 -44.5q28 -6 39 -6q13 0 29 8q9 11 20.5 16t26.5 7h1h-1q2 0 3 0.5t3 0.5q8 0 15.5 -3.5t15.5 -8.5q11 -5 21 -9t23 -5q3 -1 8 -1h10
q24 0 44.5 9t36.5 24.5t27 36.5t16 44z" />
    <glyph glyph-name="quotesinglbase" unicode="&#x201a;" horiz-adv-x="172" 
d="M177 88h-100l-82 -213h99z" />
    <glyph glyph-name="florin" unicode="&#x192;" horiz-adv-x="684" 
 />
    <glyph glyph-name="quotedblbase" unicode="&#x201e;" horiz-adv-x="312" 
d="M325 91h-108l-92 -215h110zM187 88h-111l-89 -214h108z" />
    <glyph glyph-name="ellipsis" unicode="&#x2026;" horiz-adv-x="724" 
d="M657 79q0 37 -26 62.5t-64 25.5t-63.5 -25.5t-25.5 -62.5q0 -36 25.5 -62t63.5 -26q19 0 35.5 7t28.5 19t19 28t7 34zM447 79q0 37 -25.5 62.5t-63.5 25.5q-19 0 -35.5 -7t-29 -19t-19.5 -28t-7 -34t7 -34t19.5 -28t29 -19t35.5 -7q38 0 63.5 26t25.5 62zM238 79
q0 37 -26 62.5t-63 25.5q-19 0 -35.5 -7t-29 -19t-19.5 -28t-7 -34t7 -34t19.5 -28t29 -19t35.5 -7q18 0 34.5 7t28.5 19t19 28t7 34z" />
    <glyph glyph-name="dagger" unicode="&#x2020;" horiz-adv-x="433" 
d="M408 352v170l-145 -37l34 169h-163l37 -169l-146 38v-166l146 32l-33 -123l42 -371h73l44 368l-31 126z" />
    <glyph glyph-name="daggerdbl" unicode="&#x2021;" horiz-adv-x="428" 
d="M407 352v168l-142 -36l34 168h-165l39 -168l-146 38v-169l142 33l-34 -124l32 -105q-36 9 -75.5 18t-70.5 16v-171l149 37l-36 -166h164l-39 164q23 -5 46 -10.5t46 -11.5q8 -2 26.5 -7t26.5 -7l-3 168l-137 -30l30 109l-29 119z" />
    <glyph glyph-name="circumflex" unicode="&#x2c6;" horiz-adv-x="278" 
d="M295 372l-101 129h-106l-105 -129h94l63 56l63 -56h92z" />
    <glyph glyph-name="perthousand" unicode="&#x2030;" horiz-adv-x="1211" 
d="M1200 71v246q-11 25 -28.5 47.5t-46.5 27.5h-214q-30 -10 -49.5 -30.5t-24.5 -50.5v-246q7 -20 23.5 -38t42.5 -29h211q29 0 53.5 20.5t32.5 52.5zM831 71v246q-11 25 -28 47.5t-46 27.5h-215q-38 -14 -59 -42l126 294h-96l-134 -315q1 3 1 12v218q-4 34 -28.5 56.5
t-59.5 30.5l-198 2q-14 -2 -29 -9t-27 -18t-19.5 -25.5t-7.5 -30.5v-251q8 -29 26 -47.5t46 -30.5h217q16 5 29.5 12.5t22.5 18.5l-115 -271h96l136 320v-5v-246q6 -20 22.5 -38t42.5 -29h211q29 0 53.5 20.5t32.5 52.5zM1034 125h-29v127h29v-127zM666 125h-29v127h29v-127
zM207 368h-27v141h27v-141z" />
    <glyph glyph-name="Scaron" unicode="&#x160;" horiz-adv-x="545" 
d="M422 689h-98l-58 -56l-57 56h-100l107 -131h102zM505 119v161q0 24 -8 47t-22.5 40t-35 27.5t-45.5 10.5h-150v78h58v-54h183v217h-315q-25 0 -48.5 -8t-41.5 -23t-29 -36t-11 -47v-144q0 -26 9 -50.5t24.5 -43.5t37.5 -30.5t49 -11.5h142v-86h-54v59h-196v-225h339
q23 0 43.5 9.5t36.5 26t25 38t9 45.5z" />
    <glyph glyph-name="guilsinglleft" unicode="&#x2039;" horiz-adv-x="568" 
d="M421 142l-112 158l109 159l-111 83l-160 -242l161 -243z" />
    <glyph glyph-name="OE" unicode="&#x152;" horiz-adv-x="748" 
d="M736 0v244h-193v-78h-59v91h133v150h-131v74h59v-64h183v229h-588q-27 0 -50 -10t-40.5 -27.5t-27.5 -41t-10 -50.5v-409q0 -24 11 -44t28.5 -34t39.5 -22t45 -8h600zM276 162h-55v316h55v-316z" />
    <glyph glyph-name="quoteleft" unicode="&#x2018;" horiz-adv-x="141" 
d="M161 436l-85 211h-96l83 -211h98z" />
    <glyph glyph-name="quoteright" unicode="&#x2019;" horiz-adv-x="140" 
d="M158 647h-99l-77 -211h93z" />
    <glyph glyph-name="quotedblleft" unicode="&#x201c;" horiz-adv-x="312" 
d="M326 437l-93 213h-108l92 -213h109zM186 435l-92 210h-108l91 -210h109z" />
    <glyph glyph-name="quotedblright" unicode="&#x201d;" horiz-adv-x="312" 
d="M326 647h-110l-91 -214h109zM186 644h-110l-90 -213h109z" />
    <glyph glyph-name="bullet" unicode="&#x2022;" horiz-adv-x="281" 
d="M248 299q0 22 -8.5 41.5t-23 34.5t-34 23.5t-41.5 8.5t-41.5 -8.5t-34.5 -23.5t-23.5 -34.5t-8.5 -41.5t8.5 -41.5t23.5 -33.5t34.5 -22.5t41.5 -8.5t41.5 8.5t34 22.5t23 33.5t8.5 41.5z" />
    <glyph glyph-name="endash" unicode="&#x2013;" horiz-adv-x="514" 
d="M526 150v95h-538v-95h538z" />
    <glyph glyph-name="emdash" unicode="&#x2014;" horiz-adv-x="937" 
d="M948 150v95h-959v-95h959z" />
    <glyph glyph-name="tilde" unicode="&#x2dc;" horiz-adv-x="282" 
d="M310 484h-69q-6 -11 -13 -19t-16 -11q-3 -2 -5.5 -2.5t-3.5 -0.5q-5 0 -12.5 3t-15.5 6h1q-11 5 -23.5 9.5t-28.5 4.5h-7q-25 -2 -49.5 -8.5t-44.5 -18.5t-33.5 -30.5t-17.5 -45.5q28 -6 39 -6q3 0 11.5 -1.5t15 -2.5t7.5 -1q1 1 4.5 7t9.5 13.5t11 7.5q9 0 20 -2t22 -5
q13 -4 26.5 -6.5t29.5 -3.5q3 -1 8 -1h10q24 0 44.5 9t36.5 24.5t27 36.5t16 44z" />
    <glyph glyph-name="trademark" unicode="&#x2122;" horiz-adv-x="777" 
d="M765 269v101h-26v146l23 1v100h-142l-74 -117l-75 117q-115 0 -226.5 -1t-232.5 -1v-150h97v-96h-19v-100h170v100h-21v96h96v51h17v-147l-23 -1v-99h154v124q2 -4 4 -7t5 -6q6 -8 14 -19t16 -23t16 -23.5t13 -19.5l60 95v-121h154z" />
    <glyph glyph-name="scaron" unicode="&#x161;" horiz-adv-x="439" 
d="M378 489h-98l-58 -56l-57 56h-100l107 -131h102zM408 78v160l-126 34h119v154h-292q-35 0 -56.5 -27t-21.5 -61v-146l135 -35h-135v-157h303q31 0 52.5 23t21.5 55zM240 284l-36 10v4h36v-14zM240 128h-39v20l36 -10q3 -3 3 -7v-3z" />
    <glyph glyph-name="guilsinglright" unicode="&#x203a;" horiz-adv-x="284" 
d="M279 300l-159 241l-112 -83l108 -158l-111 -157l116 -85z" />
    <glyph glyph-name="oe" unicode="&#x153;" horiz-adv-x="650" 
d="M638 76v66h-200v26h200v188q0 20 -8.5 35t-22 25t-31 15t-35.5 5h-205q-15 0 -28 -6q-8 3 -17 5t-20 2h-173q-17 0 -33 -6.5t-28 -18t-19.5 -27t-7.5 -33.5v-259q0 -18 6 -34.5t17.5 -29.5t27 -21t33.5 -8h191q17 0 32 6q15 -6 32 -6h219q14 0 27 6.5t22.5 17t15 24
t5.5 28.5zM469 269h-33v34h34zM199 137h-19v157h20z" />
    <glyph glyph-name="Ydieresis" unicode="&#x178;" horiz-adv-x="564" 
d="M417 710v2q0 21 -18.5 34.5t-42.5 13.5h-2q-25 0 -42 -15t-17 -35v-2q0 -20 18.5 -34.5t43.5 -14.5h2q23 0 40.5 15.5t17.5 35.5zM276 710v2q0 21 -18 34.5t-42 13.5h-2q-25 0 -42 -15t-17 -35v-2q0 -20 18.5 -34.5t43.5 -14.5h2q23 0 40.5 15.5t17.5 35.5h-1zM541 480
v166h-194l-64 -156l-59 156h-201v-163h57l102 -215v-104h-42v-164h287v164h-41v111l104 205h51z" />
    <glyph glyph-name="exclamdown" unicode="&#xa1;" horiz-adv-x="206" 
d="M180 397q0 16 -6 31t-17 27t-26.5 19.5t-34.5 7.5q-14 0 -27.5 -6.5t-23.5 -18t-16 -25.5t-6 -29q0 -21 7 -37.5t18.5 -28t26 -18t29.5 -6.5q7 0 14.5 3.5t15.5 5.5q24 12 35 32.5t11 42.5zM164 -169v466h-122v-466h122z" />
    <glyph glyph-name="cent" unicode="&#xa2;" horiz-adv-x="475" 
d="M419 351v114q0 32 -22 52.5t-52 20.5h-66v82h-69v-80h-77q-30 0 -53.5 -21.5t-23.5 -53.5v-292q0 -32 23.5 -51t53.5 -19h77v-85h69v83h76q26 0 44 20t18 48v118h-162v-39h-19v146h21v-43h162z" />
    <glyph glyph-name="sterling" unicode="&#xa3;" horiz-adv-x="488" 
d="M495 421v120q0 24 -10.5 43.5t-28 33t-39.5 21t-45 7.5h-222q-22 0 -41 -8.5t-33.5 -23.5t-22.5 -35t-8 -42v-155l-52 1v-149h48v-236h450v215h-188v-49h-65v68h105v151l-105 -1v99h68v-60h189z" />
    <glyph glyph-name="currency" unicode="&#xa4;" horiz-adv-x="469" 
d="M470 0v262h-187v-96h-55v127h235v33h-235v28h235v33h-235v98h55v-72h180v235h-322q-24 0 -45 -9.5t-36.5 -26t-25 -38.5t-9.5 -46v-141h-26v-33h26v-28h-26v-33h26v-139q0 -28 7.5 -55.5t22 -49t36 -34.5t49.5 -13z" />
    <glyph glyph-name="currency" unicode="&#x20ac;" horiz-adv-x="469" 
d="M470 0v262h-187v-96h-55v127h235v33h-235v28h235v33h-235v98h55v-72h180v235h-322q-24 0 -45 -9.5t-36.5 -26t-25 -38.5t-9.5 -46v-141h-26v-33h26v-28h-26v-33h26v-139q0 -28 7.5 -55.5t22 -49t36 -34.5t49.5 -13z" />
    <glyph glyph-name="yen" unicode="&#xa5;" horiz-adv-x="523" 
d="M520 480v166h-193l-64 -156l-59 156h-201v-163h56l42 -87h-37v-97h90l7 -30v-15h-97v-91h96v-163h207v163h98v91h-99v21q4 7 7 13t5 11h87v97h-38l42 84h51z" />
    <glyph glyph-name="section" unicode="&#xa7;" horiz-adv-x="430" 
d="M419 231q0 23 -8.5 45t-25.5 40l-166 177q-7 8 -11.5 13.5t-4.5 12.5q0 3 2 6q0 4 5 6t11 2t16.5 -8.5t20.5 -18t17.5 -18l7.5 -8.5l96 84q-37 35 -76 60.5t-83 27.5q-4 1 -7 1h-5q-11 0 -21.5 -1.5t-20.5 -6.5h2q-48 -11 -71.5 -45t-23.5 -76q0 -37 20 -74
q-27 -10 -51 -34q-17 -17 -24 -37.5t-7 -42.5q0 -36 17.5 -70.5t40.5 -58.5l144 -152l-2 1q16 -16 16 -32v-3q-10 -8 -16 -8q-9 0 -25.5 12.5t-27.5 23t-13 12.5l-98 -77q41 -41 86 -67t89 -26q24 0 48.5 7.5t47.5 25.5t32.5 41t9.5 48q0 23 -8 45.5t-20 42.5q16 6 30 16.5
t24 21.5q15 18 24 42.5t9 49.5zM285 214q0 -4 -4.5 -6t-10.5 -2q-12 0 -21 7l2 -1q-15 13 -32.5 29t-33 32.5t-27 32.5t-15.5 28q0 2 -1 3.5t-1 3.5q0 4 5.5 6t11.5 2q13 0 21 -8v-1l52 -52t48 -56l-2 1q9 -14 9 -19h-1z" />
    <glyph glyph-name="dieresis" unicode="&#xa8;" horiz-adv-x="632" 
d="M447 500v2q0 21 -18.5 34.5t-42.5 13.5h-2q-25 0 -42 -15t-17 -35v-2q0 -20 18.5 -34.5t43.5 -14.5h2q23 0 40.5 15.5t17.5 35.5zM306 500v2q0 21 -18 34.5t-42 13.5h-2q-25 0 -42 -15t-17 -35v-2q0 -20 18.5 -34.5t43.5 -14.5h2q23 0 40.5 15.5t17.5 35.5h-1z" />
    <glyph glyph-name="copyright" unicode="&#xa9;" horiz-adv-x="726" 
d="M741 359q0 79 -29.5 148.5t-81 121t-120.5 81t-148 29.5t-148 -29.5t-120 -81t-80 -121t-29 -148.5q0 -78 29.5 -146.5t80.5 -120t120 -81t148 -29.5t148 29.5t120 81t80.5 120t29.5 146.5zM617 359q0 -56 -19.5 -102.5t-54 -80.5t-81 -53t-100.5 -19q-55 0 -101.5 19
t-80.5 53t-53.5 80.5t-19.5 102.5q0 57 19.5 104t54 81t81 53t101.5 19q54 0 100.5 -19t81 -53t54 -81t19.5 -104h-1zM502 142v173h-124v-63h-36v211h36v-48h119v156h-213q-15 0 -29 -6.5t-24.5 -17.5t-16.5 -25.5t-6 -30.5v-247q0 -19 5 -37t14.5 -32.5t24 -23t32.5 -8.5z
" />
    <glyph glyph-name="guillemotleft" unicode="&#xab;" horiz-adv-x="482" 
d="M464 51l-109 155l107 157h-153l-109 -156l111 -156h153zM282 51l-109 155l107 157h-154l-108 -155l111 -157h153z" />
    <glyph glyph-name="logicalnot" unicode="&#xac;" horiz-adv-x="466" 
d="M445 450v94h-27v138q0 18 -9 29.5t-22 18.5t-27 9.5t-24 2.5q-12 0 -19.5 -0.5t-13 -2.5t-11 -7t-14.5 -15q-6 8 -13.5 14t-17.5 8l-76 1l-14 -15v13h-145v-91l26 -1v-196h119v195h12v-195h120v194h14v-194h142zM449 -2v110h-66v159h-65l35 64l46 2v108h-130l-61 -128
v128h-168v-108h28v-225h-28v-110h168v155h35v-155h206z" />
    <glyph glyph-name="registered" unicode="&#xae;" horiz-adv-x="726" 
d="M741 359q0 79 -29.5 148.5t-81 121t-120.5 81t-148 29.5t-148 -29.5t-120 -81t-80 -121t-29 -148.5q0 -78 29.5 -146.5t80.5 -120t120 -81t148 -29.5t148 29.5t120 81t80.5 120t29.5 146.5zM617 359q0 -56 -19.5 -102.5t-54 -80.5t-81 -53t-100.5 -19q-55 0 -101.5 19
t-80.5 53t-53.5 80.5t-19.5 102.5q0 57 19.5 104t54 81t81 53t101.5 19q54 0 100.5 -19t81 -53t54 -81t19.5 -104h-1zM531 165v98l-26 1l-1 43q-3 37 -34 54q14 8 23.5 21t10.5 31l2 60v3q0 16 -6.5 30.5t-17 25t-25 17t-29.5 6.5h-229v-99l24 -1v-192l-24 -1v-97h149v149
h35v-103q0 -16 9.5 -31t29.5 -15h109zM382 404h-35v48h35v-48z" />
    <glyph glyph-name="degree" unicode="&#xb0;" horiz-adv-x="256" 
d="M223 423q0 21 -9 41t-26 34q-13 11 -28.5 15.5t-31.5 4.5q-21 0 -40 -8.5t-33 -25.5q-11 -14 -16.5 -30t-5.5 -31q0 -43 35 -72q28 -22 61 -22q44 0 73 35l1 1q20 25 20 58zM159 423q0 -10 -6 -19q-8 -11 -24 -11q-12 0 -20 7q-12 9 -12 23q0 10 8 21q7 10 23 10
q9 0 20 -7q11 -8 11 -24z" />
    <glyph glyph-name="twosuperior" unicode="&#xb2;" horiz-adv-x="289" 
d="M276 318v87h-62l61 44v92q-5 23 -19.5 42.5t-48.5 19.5l-115 1q-29 -4 -48 -15t-24 -39v-80h116v48h17v-37q-32 -29 -67 -54.5t-73 -49.5v-59h263z" />
    <glyph glyph-name="threesuperior" unicode="&#xb3;" horiz-adv-x="291" 
d="M284 536v65h-268v-111h90l-10 -9v-48h-89v-67q18 -39 63 -48l140 -1q29 7 47.5 22t21.5 39v80q-5 11 -12.5 21.5t-18.5 17.5zM132 516l-3 -2v2h3zM151 403h-20v23h20v-23z" />
    <glyph glyph-name="acute" unicode="&#xb4;" horiz-adv-x="258" 
d="M235 583h-143l-69 -131h82z" />
    <glyph glyph-name="paragraph" unicode="&#xb6;" horiz-adv-x="606" 
d="M553 604v108h-291q-41 0 -78.5 -17.5t-66.5 -47.5t-46.5 -68.5t-17.5 -80.5v-11t2 -10v1q6 -56 23.5 -94t44.5 -62.5t61.5 -37.5t73.5 -18v-421l107 1v757h26v-758h103v759h59z" />
    <glyph glyph-name="periodcentered" unicode="&#xb7;" horiz-adv-x="240" 
d="M189 234q0 23 -14 40q-10 14 -25 21t-31 7q-21 0 -40 -13q-14 -10 -21 -25t-7 -31q0 -21 15 -39q10 -14 24.5 -20.5t30.5 -6.5q22 0 41 13q14 10 20.5 24t6.5 30z" />
    <glyph glyph-name="periodcentered" unicode="&#x2219;" horiz-adv-x="240" 
d="M189 234q0 23 -14 40q-10 14 -25 21t-31 7q-21 0 -40 -13q-14 -10 -21 -25t-7 -31q0 -21 15 -39q10 -14 24.5 -20.5t30.5 -6.5q22 0 41 13q14 10 20.5 24t6.5 30z" />
    <glyph glyph-name="cedilla" unicode="&#xb8;" horiz-adv-x="272" 
d="M259 -72q0 17 -7 30t-18.5 22t-26 14t-30.5 6l11 31h-68l-38 -97h29t9.5 0.5t-1 1t-0.5 1.5q10 2 16 2q16 0 16 -14q0 -4 -6 -8q-8 -7 -25 -7q-19 0 -43.5 9t-41.5 18q-9 -14 -15.5 -31t-6.5 -34q25 -8 45.5 -14t37.5 -9q15 -3 42 -3q19 0 38.5 2.5t36 10t29 20.5
t16.5 33v16h1z" />
    <glyph glyph-name="onesuperior" unicode="&#xb9;" horiz-adv-x="212" 
d="M204 322v86h-20v197h-100l-76 -57l48 -63l16 11v-88h-21v-86h153z" />
    <glyph glyph-name="guillemotright" unicode="&#xbb;" horiz-adv-x="481" 
d="M463 206l-109 158h-155q4 -6 11.5 -16t15.5 -21.5t15.5 -21.5t11.5 -16v1q15 -20 29 -41t28 -41l-110 -157h155zM282 206l-113 158h-150l108 -160l-109 -154h154z" />
    <glyph glyph-name="onequarter" unicode="&#xbc;" horiz-adv-x="532" 
d="M516 638h-101l-167 -270v71h-21v211h-113l-83 -61l51 -68l18 13v-95h-22v-93h156l-218 -351h100zM511 96v93h-33v152h-114l-117 -151v-94h98v-96h155v96h11z" />
    <glyph glyph-name="onehalf" unicode="&#xbd;" horiz-adv-x="504" 
d="M515 0v94h-65l64 47v98q-4 25 -20.5 46t-51.5 21l-122 1q-27 -3 -44 -11l215 342h-101l-159 -254v59h-21v212h-113l-85 -61l50 -68l20 13v-96h-23v-93h151l-221 -355h99l154 246v-77h123v52h18v-41q-33 -30 -70 -57.5t-78 -53.5v-64h280z" />
    <glyph glyph-name="threequarters" unicode="&#xbe;" horiz-adv-x="539" 
d="M536 638h-102l-143 -230v85q-5 12 -12.5 23t-19.5 18l38 43v69h-285v-119h96l-10 -10v-52h-95v-72q18 -40 67 -51l148 -1q26 7 41 16l-226 -362h100zM522 96v93h-34v152h-115l-118 -151v-94h100v-96h155v96h12zM136 555l-3 -3v3h3zM156 433h-21v25h21v-25z" />
    <glyph glyph-name="questiondown" unicode="&#xbf;" horiz-adv-x="345" 
d="M294 398q0 35 -24 60t-60 25h-9t-8 -1l-2 -1q-29 -10 -45 -33.5t-16 -55.5q0 -38 26 -57.5t56 -19.5q19 0 37 7.5t29 24.5q8 14 12 26t4 25zM344 -78v95h-142v-49h-27v87h108v242h-144v-80h-67q-31 -10 -51 -34.5t-20 -57.5v-213q2 -14 6.5 -27t12.5 -24t20.5 -17.5
t29.5 -6.5l208 -2q31 7 52 37q5 13 8.5 26t5.5 24z" />
    <glyph glyph-name="Agrave" unicode="&#xc0;" horiz-adv-x="632" 
d="M606 0v166h-46l-94 480h-307l-86 -482h-47v-164h238l20 149h72l17 -149h233zM413 567h-84l-126 131h141zM335 295h-36l18 117z" />
    <glyph glyph-name="Aacute" unicode="&#xc1;" horiz-adv-x="632" 
d="M454 793h-143l-69 -131h82zM606 0v166h-46l-94 480h-307l-86 -482h-47v-164h238l20 149h72l17 -149h233zM335 295h-36l18 117z" />
    <glyph glyph-name="Acircumflex" unicode="&#xc2;" horiz-adv-x="632" 
d="M471 672l-102 129h-106l-105 -129h95l63 56l63 -56h92zM606 0v166h-46l-94 480h-307l-86 -482h-47v-164h238l20 149h72l17 -149h233zM335 295h-36l18 117z" />
    <glyph glyph-name="Atilde" unicode="&#xc3;" horiz-adv-x="632" 
d="M606 0v166h-46l-94 480h-307l-86 -482h-47v-164h238l20 149h72l17 -149h233zM481 679q-6 -23 -17 -44t-27 -36.5t-36.5 -24.5t-44.5 -9q-13 0 -18 1q-15 1 -28.5 3.5t-27.5 6.5q-11 3 -22 5t-20 2q-8 0 -15.5 -3t-15.5 -12q-16 -8 -28 -8q-11 0 -39 6q4 27 18 45.5
t34 30.5t44.5 18.5t49.5 8.5h7q16 0 28.5 -4.5t23.5 -9.5h-2q9 -3 16.5 -6t12.5 -3l3 0.5t6 2.5q9 3 16 11t13 19h69zM335 295h-36l18 117z" />
    <glyph glyph-name="Adieresis" unicode="&#xc4;" horiz-adv-x="632" 
d="M447 700v2q0 21 -18.5 34.5t-42.5 13.5h-2q-25 0 -42 -15t-17 -35v-2q0 -20 18.5 -34.5t43.5 -14.5h2q23 0 40.5 15.5t17.5 35.5zM306 700v2q0 21 -18 34.5t-42 13.5h-2q-25 0 -42 -15t-17 -35v-2q0 -20 18.5 -34.5t43.5 -14.5h2q23 0 40.5 15.5t17.5 35.5h-1zM606 0v166
h-46l-94 480h-307l-86 -482h-47v-164h238l20 149h72l17 -149h233zM335 295h-36l18 117z" />
    <glyph glyph-name="Aring" unicode="&#xc5;" horiz-adv-x="632" 
d="M411 749q0 19 -7.5 36t-20.5 30.5t-32 21.5t-41 8q-40 -4 -66 -32t-26 -65q0 -16 7 -33q11 -32 28 -47t46 -15q16 0 39 5t37 14q19 17 27.5 37t8.5 40zM606 0v166h-46l-94 480h-307l-86 -482h-47v-164h238l20 149h72l17 -149h233zM338 747q0 -17 -15 -24q-2 0 -4 -0.5
t-5 -0.5q-11 0 -17.5 8t-6.5 18q0 8 5 14.5t16 9.5l4 1l-3 -1q3 0 11 -2q16 -9 16 -23h-1zM335 295h-36l18 117z" />
    <glyph glyph-name="AE" unicode="&#xc6;" horiz-adv-x="841" 
d="M832 0v246h-193v-80h-61v91h135v150h-135v76h62v-66h185v229h-676v-163h36l-126 -319h-50v-164h200l61 153h104v-153h458zM374 293h-48l48 115v-115z" />
    <glyph glyph-name="Ccedilla" unicode="&#xc7;" horiz-adv-x="511" 
d="M478 0v262h-187v-96h-55v319h55v-72h180v235h-322q-24 0 -45 -9.5t-36.5 -26t-25 -38.5t-9.5 -46v-374q0 -28 7.5 -55.5t22 -49t36 -34.5t49.5 -13h69l-25 -69q25 -8 32.5 -8.5t11.5 -0.5q16 0 16 -14q0 -5 -5 -8q-8 -7 -25 -7q-12 0 -33 7t-35.5 13t-16.5 7l-22 -65
q2 -1 16.5 -5t35 -10t30.5 -8q16 -3 42 -3q19 0 38.5 2.5t36.5 10t29 20.5t16 33q1 3 1 7v9q0 35 -24.5 52.5t-56.5 19.5l5 16z" />
    <glyph glyph-name="Egrave" unicode="&#xc8;" horiz-adv-x="570" 
d="M381 662l-69 131h-140l126 -131h83zM529 0v244h-185v-80h-58v91h130v150l-130 2v76h58v-66h176v229h-479v-163h42v-319h-42v-164h488z" />
    <glyph glyph-name="Eacute" unicode="&#xc9;" horiz-adv-x="570" 
d="M396 784h-142l-69 -131h81zM529 0v244h-185v-80h-58v91h130v150l-130 2v76h58v-66h176v229h-479v-163h42v-319h-42v-164h488z" />
    <glyph glyph-name="Ecircumflex" unicode="&#xca;" horiz-adv-x="570" 
d="M433 662l-101 129h-106l-105 -129h94l63 56l63 -56h92zM529 0v244h-185v-80h-58v91h130v150l-130 2v76h58v-66h176v229h-479v-163h42v-319h-42v-164h488z" />
    <glyph glyph-name="Edieresis" unicode="&#xcb;" horiz-adv-x="570" 
d="M408 711q0 22 -18.5 37.5t-43.5 15.5q-26 0 -44.5 -15.5t-18.5 -37.5q0 -21 18.5 -36.5t44.5 -15.5q25 0 43.5 15.5t18.5 36.5zM280 710v2q0 21 -18 34.5t-42 13.5h-2q-25 0 -42 -15t-17 -35v-2q0 -20 18 -34.5t43 -14.5h2q23 0 40.5 15.5t17.5 35.5zM529 0v244h-185v-80
h-58v91h130v150l-130 2v76h58v-66h176v229h-479v-163h42v-319h-42v-164h488z" />
    <glyph glyph-name="Igrave" unicode="&#xcc;" horiz-adv-x="351" 
d="M272 667l-70 131h-140l127 -131h83zM312 0v164h-40v317h39v165h-272v-165h42v-319h-37v-162h268z" />
    <glyph glyph-name="Iacute" unicode="&#xcd;" horiz-adv-x="351" 
d="M323 789h-143l-69 -131h82zM312 0v164h-40v317h39v165h-272v-165h42v-319h-37v-162h268z" />
    <glyph glyph-name="Icircumflex" unicode="&#xce;" horiz-adv-x="351" 
d="M332 667l-102 129h-106l-105 -129h95l63 56l63 -56h92zM315 0v164h-40v317h39v165h-272v-165h42v-319h-37v-162h268z" />
    <glyph glyph-name="Idieresis" unicode="&#xcf;" horiz-adv-x="351" 
d="M299 706q0 22 -19 37.5t-44 15.5q-26 0 -44.5 -15.5t-18.5 -37.5q0 -21 19 -36.5t45 -15.5q25 0 43.5 15.5t18.5 36.5zM170 705v2q0 21 -18 34.5t-42 13.5h-2q-25 0 -42 -15t-17 -35v-2q0 -20 18.5 -34.5t43.5 -14.5h2q23 0 40.5 15.5t17.5 35.5h-1zM312 0v164h-40v317
h39v165h-272v-165h42v-319h-37v-162h268z" />
    <glyph glyph-name="Eth" unicode="&#xd0;" horiz-adv-x="542" 
d="M527 105v420q0 21 -7.5 42.5t-21 39t-33 28.5t-42.5 11l-401 2v-165h44v-112h-51v-91h51v-117l-42 -2v-161l402 2q21 0 39.5 8t32 22.5t21.5 33t8 39.5zM327 162h-57v118h45v91h-45v109h57v-318z" />
    <glyph glyph-name="Ntilde" unicode="&#xd1;" horiz-adv-x="687" 
d="M519 784h-69q-6 -11 -13 -19t-16 -11q-3 -2 -5.5 -2.5t-3.5 -0.5q-5 0 -12.5 3t-15.5 6h1q-11 5 -23.5 9.5t-28.5 4.5h-7q-25 -2 -49.5 -8.5t-44.5 -18.5t-33.5 -30.5t-17.5 -45.5q28 -6 39 -6q5 0 15 -1.5l10 -1.5q1 1 6.5 7t14 12.5t13.5 6.5q9 0 20 -2t22 -5
q13 -4 26.5 -6.5t29.5 -3.5q3 -1 8 -1h10q24 0 44.5 9t36.5 24.5t27 36.5t16 44zM646 484v162h-240v-247l-133 249h-232v-165h44v-319h-44v-164h242v253l132 -251l190 -2v482z" />
    <glyph glyph-name="Ograve" unicode="&#xd2;" horiz-adv-x="527" 
d="M333 667l-69 131h-140l126 -131h83zM491 129v407q0 23 -8.5 43t-23.5 35t-35 23.5t-43 8.5h-222q-21 0 -43 -7.5t-39.5 -21.5t-29 -33.5t-11.5 -44.5v-434q0 -23 9 -42t24 -33t35 -22t42 -8h240q24 0 43.5 11.5t33 29.5t21 41t7.5 47zM291 162h-54v318h54v-318z" />
    <glyph glyph-name="Oacute" unicode="&#xd3;" horiz-adv-x="527" 
d="M404 789h-142l-69 -131h81zM491 129v407q0 23 -8.5 43t-23.5 35t-35 23.5t-43 8.5h-222q-21 0 -43 -7.5t-39.5 -21.5t-29 -33.5t-11.5 -44.5v-434q0 -23 9 -42t24 -33t35 -22t42 -8h240q24 0 43.5 11.5t33 29.5t21 41t7.5 47zM291 162h-54v318h54v-318z" />
    <glyph glyph-name="Ocircumflex" unicode="&#xd4;" horiz-adv-x="527" 
d="M416 667l-101 129h-106l-105 -129h94l63 56l63 -56h92zM491 129v407q0 23 -8.5 43t-23.5 35t-35 23.5t-43 8.5h-222q-21 0 -43 -7.5t-39.5 -21.5t-29 -33.5t-11.5 -44.5v-434q0 -23 9 -42t24 -33t35 -22t42 -8h240q24 0 43.5 11.5t33 29.5t21 41t7.5 47zM291 162h-54v318
h54v-318z" />
    <glyph glyph-name="Otilde" unicode="&#xd5;" horiz-adv-x="527" 
d="M491 129v407q0 23 -8.5 43t-23.5 35t-35 23.5t-43 8.5h-222q-21 0 -43 -7.5t-39.5 -21.5t-29 -33.5t-11.5 -44.5v-434q0 -23 9 -42t24 -33t35 -22t42 -8h240q24 0 43.5 11.5t33 29.5t21 41t7.5 47zM426 684q-5 -23 -16 -44t-27 -36.5t-36.5 -24.5t-44.5 -9h-10t-8 1
q-16 1 -29.5 3.5t-26.5 6.5q-11 3 -22 5t-20 2q-8 0 -15.5 -3t-15.5 -12q-16 -8 -28 -8q-11 0 -39 6q4 27 17.5 45.5t33.5 30.5t44.5 18.5t49.5 8.5h7q16 0 28.5 -4.5t23.5 -9.5h-1q8 -3 15.5 -6t12.5 -3q1 0 3.5 0.5t5.5 2.5q9 3 16 11t13 19h69zM291 162h-54v318h54v-318z
" />
    <glyph glyph-name="Odieresis" unicode="&#xd6;" horiz-adv-x="527" 
d="M407 700v2q0 21 -18.5 34.5t-42.5 13.5h-2q-25 0 -42 -15t-17 -35v-2q0 -20 18.5 -34.5t43.5 -14.5h2q23 0 40.5 15.5t17.5 35.5zM266 700v2q0 21 -18 34.5t-42 13.5h-2q-25 0 -42 -15t-17 -35v-2q0 -20 18.5 -34.5t43.5 -14.5h2q23 0 40.5 15.5t17.5 35.5h-1zM491 129
v407q0 23 -8.5 43t-23.5 35t-35 23.5t-43 8.5h-222q-21 0 -43 -7.5t-39.5 -21.5t-29 -33.5t-11.5 -44.5v-434q0 -23 9 -42t24 -33t35 -22t42 -8h240q24 0 43.5 11.5t33 29.5t21 41t7.5 47zM291 162h-54v318h54v-318z" />
    <glyph glyph-name="Oslash" unicode="&#xd8;" 
d="M490 687h-97l-23 -37h-236q-27 0 -49.5 -11.5t-38.5 -30.5t-25 -43.5t-9 -51.5v-376q0 -26 9 -47.5t20 -41.5l-46 -87h94l24 39h250q22 0 42 9t35 24.5t24 36t9 43.5v424q0 28 -8.5 44t-22.5 27zM271 464l-53 -96v115h54zM270 160h-50v34l51 87z" />
    <glyph glyph-name="Ugrave" unicode="&#xd9;" horiz-adv-x="614" 
d="M402 672l-69 131h-140l126 -131h83zM583 483v163h-247v-482h-56v482h-249v-163h41v-354q0 -26 9 -49.5t24.5 -41t37.5 -28t48 -10.5h236q26 0 47.5 13t36.5 33t23.5 44t8.5 47v346h40z" />
    <glyph glyph-name="Uacute" unicode="&#xda;" horiz-adv-x="614" 
d="M434 793h-142l-69 -131h81zM583 483v163h-247v-482h-56v482h-249v-163h41v-354q0 -26 9 -49.5t24.5 -41t37.5 -28t48 -10.5h236q26 0 47.5 13t36.5 33t23.5 44t8.5 47v346h40z" />
    <glyph glyph-name="Ucircumflex" unicode="&#xdb;" horiz-adv-x="614" 
d="M450 672l-101 129h-106l-105 -129h94l63 56l63 -56h92zM583 483v163h-247v-482h-56v482h-249v-163h41v-354q0 -26 9 -49.5t24.5 -41t37.5 -28t48 -10.5h236q26 0 47.5 13t36.5 33t23.5 44t8.5 47v346h40z" />
    <glyph glyph-name="Udieresis" unicode="&#xdc;" horiz-adv-x="614" 
d="M447 703v2q0 21 -18.5 34.5t-42.5 13.5h-2q-25 0 -42 -15t-17 -35v-2q0 -20 18.5 -34.5t43.5 -14.5h2q23 0 40.5 15.5t17.5 35.5zM306 703v2q0 21 -18 34.5t-42 13.5h-2q-25 0 -42 -15t-17 -35v-2q0 -20 18.5 -34.5t43.5 -14.5h2q23 0 40.5 15.5t17.5 35.5h-1zM583 483
v163h-247v-482h-56v482h-249v-163h41v-354q0 -26 9 -49.5t24.5 -41t37.5 -28t48 -10.5h236q26 0 47.5 13t36.5 33t23.5 44t8.5 47v346h40z" />
    <glyph glyph-name="Yacute" unicode="&#xdd;" horiz-adv-x="564" 
d="M380 693h-143l-69 -131h82zM541 480v166h-194l-64 -156l-59 156h-201v-163h57l102 -215v-104h-42v-164h287v164h-41v111l104 205h51z" />
    <glyph glyph-name="Thorn" unicode="&#xde;" horiz-adv-x="416" 
d="M413 198v267q0 32 -22.5 53t-50.5 29h-93l-29 -26v135h-215v-147h42v-537l-42 -2v-142h251v142l-36 2v152l22 -19h104q39 7 54 32t15 61zM235 249h-17v146h18z" />
    <glyph glyph-name="germandbls" unicode="&#xdf;" 
d="M475 93v186q0 23 -11 40.5t-27 28.5q14 12 22.5 29.5t8.5 38.5v127q0 20 -5 40t-15 36.5t-25 26.5t-35 10h-227q-19 -1 -38 -10t-34 -23.5t-24 -34t-9 -41.5v-556h-46v-145h221v631q-2 3 -2 6q0 10 9 17q10 3 26 3q14 0 25 -3q3 -3 5.5 -7t4.5 -11q6 -14 6 -28
q0 -25 -14 -35q-8 -2 -20 -3.5t-32 -1.5v-142q2 0 12.5 0.5t25 1t19.5 0.5h1t1 2v-119q0 -4 -5 -6t-12 -3t-13 -1.5t-9 -0.5h-20v-146h154q37 0 59.5 28t22.5 65zM295 420l-2 -1z" />
    <glyph glyph-name="agrave" unicode="&#xe0;" horiz-adv-x="457" 
d="M295 432l-69 131h-140l126 -131h83zM432 0v142h-39v204q0 32 -20.5 56t-53.5 24h-204q-29 0 -52.5 -19t-23.5 -50v-95l150 10v24h33v-35h-109q-16 0 -32 -5t-28.5 -14.5t-20 -23t-7.5 -30.5v-110q0 -14 4 -27.5t12 -25t19.5 -18.5t26.5 -7h115l20 18v-18h210zM222 132
h-33v24h33v-24z" />
    <glyph glyph-name="aacute" unicode="&#xe1;" horiz-adv-x="457" 
d="M400 573h-142l-69 -131h81zM432 0v142h-39v214q0 32 -20.5 56t-53.5 24h-204q-29 0 -52.5 -19t-23.5 -50v-95l150 10v24h33v-35h-109q-16 0 -32 -6.5t-28.5 -18t-20 -26.5t-7.5 -32v-110q0 -14 4 -27.5t12 -25t19.5 -18.5t26.5 -7h115l20 18v-18h210zM222 132h-33v24h33
v-24z" />
    <glyph glyph-name="acircumflex" unicode="&#xe2;" horiz-adv-x="457" 
d="M377 432l-101 129h-106l-105 -129h94l63 56l63 -56h92zM432 0v142h-39v204q0 32 -20.5 56t-53.5 24h-204q-29 0 -52.5 -19t-23.5 -50v-95l150 10v24h33v-35h-109q-16 0 -32 -5t-28.5 -14.5t-20 -23t-7.5 -30.5v-110q0 -14 4 -27.5t12 -25t19.5 -18.5t26.5 -7h115l20 18
v-18h210zM222 132h-33v24h33v-24z" />
    <glyph glyph-name="atilde" unicode="&#xe3;" horiz-adv-x="457" 
d="M387 554h-69q-6 -11 -13 -19t-16 -11q-3 -2 -5.5 -2.5t-3.5 -0.5q-5 0 -12.5 3t-15.5 6h1q-11 5 -23.5 9.5t-28.5 4.5h-7q-25 -2 -49.5 -8.5t-44.5 -18.5t-33.5 -30.5t-17.5 -45.5q28 -6 39 -6q5 0 16.5 -3l11.5 -3q1 1 6 7.5t12.5 14t12.5 7.5q9 0 20 -2t22 -5
q13 -4 26.5 -6.5t29.5 -3.5q3 -1 8 -1h10q24 0 44.5 9t36.5 24.5t27 36.5t16 44zM432 0v142h-39v204q0 32 -20.5 56t-53.5 24h-204q-29 0 -52.5 -19t-23.5 -50v-95l150 10v24h33v-35h-109q-16 0 -32 -5t-28.5 -14.5t-20 -23t-7.5 -30.5v-110q0 -14 4 -27.5t12 -25
t19.5 -18.5t26.5 -7h115l20 18v-18h210zM222 132h-33v24h33v-24z" />
    <glyph glyph-name="adieresis" unicode="&#xe4;" horiz-adv-x="457" 
d="M357 485v2q0 21 -18.5 34.5t-42.5 13.5h-2q-25 0 -42 -15t-17 -35v-2q0 -20 18.5 -34.5t43.5 -14.5h2q23 0 40.5 15.5t17.5 35.5zM216 485v2q0 21 -18 34.5t-42 13.5h-2q-25 0 -42 -15t-17 -35v-2q0 -20 18.5 -34.5t43.5 -14.5h2q23 0 40.5 15.5t17.5 35.5h-1zM432 0v142
h-39v204q0 32 -20.5 56t-53.5 24h-204q-29 0 -52.5 -19t-23.5 -50v-95l150 10v24h33v-35h-109q-16 0 -32 -5t-28.5 -14.5t-20 -23t-7.5 -30.5v-110q0 -14 4 -27.5t12 -25t19.5 -18.5t26.5 -7h115l20 18v-18h210zM222 132h-33v24h33v-24z" />
    <glyph glyph-name="aring" unicode="&#xe5;" horiz-adv-x="457" 
d="M298 544q0 19 -7 36.5t-20.5 31.5t-32 22.5t-40.5 8.5h-1q-39 -4 -65 -32t-26 -65q0 -18 6 -33q11 -32 35.5 -47t53.5 -15q31 0 61 19q36 33 36 74zM432 0v142h-39v204q0 32 -20.5 56t-53.5 24h-204q-29 0 -52.5 -19t-23.5 -50v-95l150 10v24h33v-35h-109q-16 0 -32 -5
t-28.5 -14.5t-20 -23t-7.5 -30.5v-110q0 -14 4 -27.5t12 -25t19.5 -18.5t26.5 -7h115l20 18v-18h210zM226 545q0 -17 -15 -24q-2 0 -4 -0.5t-5 -0.5q-11 0 -17.5 8t-6.5 18q0 8 4.5 14.5t15.5 9.5l4 1l-2 -1q2 0 10 -2q16 -9 16 -23zM222 132h-33v24h33v-24z" />
    <glyph glyph-name="ae" unicode="&#xe6;" horiz-adv-x="595" 
d="M584 76v66h-167h-33v26h200v188q0 20 -8.5 35t-22 25t-31 15t-35.5 5h-183h-22h-182q-29 0 -52.5 -19t-23.5 -50v-105l151 10v34h31v-45h-108q-16 0 -32 -5t-28.5 -14.5t-20 -23t-7.5 -30.5v-110q0 -14 4 -27.5t12.5 -25t20 -18.5t26.5 -7h115l20 18v-18h87h123h96
q14 0 27 6.5t22.5 17t15 24t5.5 28.5zM415 269h-33v34h34zM205 132h-31v34h32z" />
    <glyph glyph-name="ccedilla" unicode="&#xe7;" horiz-adv-x="389" 
d="M308 -97q0 35 -24.5 52.5t-56.5 19.5l8 25h57q13 0 27.5 3.5t25.5 11.5t18.5 19.5t7.5 28.5v120h-152v-39h-18v141h18v-38h156v103q0 18 -8.5 32.5t-22 24t-29.5 14.5t-32 5h-174q-19 0 -34 -8.5t-25 -22.5t-15.5 -31.5t-5.5 -36.5v-251q0 -34 24.5 -55t56.5 -21h57
l-35 -91h29t9 0.5t-1 1t-1 1.5q10 2 16 2q16 0 16 -14q0 -5 -5 -8q-8 -7 -25 -7q-19 0 -43.5 9t-41.5 18q-9 -14 -15.5 -31t-6.5 -34q24 -8 45 -14t37 -9t42 -3q19 0 38.5 2.5t36.5 10t29 20.5t16 33q1 3 1 7v9z" />
    <glyph glyph-name="egrave" unicode="&#xe8;" horiz-adv-x="439" 
d="M281 452l-70 131h-140l127 -131h83zM388 76v66h-200v26h200v188q0 20 -8.5 35t-22 25t-31 15t-35.5 5h-205q-18 0 -32.5 -8.5t-24.5 -22.5t-15 -31t-5 -33v-246q0 -19 6.5 -36.5t18.5 -30.5t28.5 -20.5t36.5 -7.5h219q14 0 27 6.5t22.5 17t15 24t5.5 28.5zM219 269h-33
v34h34z" />
    <glyph glyph-name="eacute" unicode="&#xe9;" horiz-adv-x="397" 
d="M331 598h-143l-69 -131h82zM388 76v66h-200v26h200v188q0 20 -8.5 35t-22 25t-31 15t-35.5 5h-205q-18 0 -32.5 -8.5t-24.5 -22.5t-15 -31t-5 -33v-246q0 -19 6.5 -36.5t18.5 -30.5t28.5 -20.5t36.5 -7.5h219q14 0 27 6.5t22.5 17t15 24t5.5 28.5zM219 269h-33v34h34z
" />
    <glyph glyph-name="ecircumflex" unicode="&#xea;" horiz-adv-x="399" 
d="M363 452l-102 129h-106l-105 -129h95l63 56l63 -56h92zM388 76v66h-200v26h200v188q0 20 -8.5 35t-22 25t-31 15t-35.5 5h-205q-18 0 -32.5 -8.5t-24.5 -22.5t-15 -31t-5 -33v-246q0 -19 6.5 -36.5t18.5 -30.5t28.5 -20.5t36.5 -7.5h219q14 0 27 6.5t22.5 17t15 24
t5.5 28.5zM219 269h-33v34h34z" />
    <glyph glyph-name="edieresis" unicode="&#xeb;" horiz-adv-x="399" 
d="M348 505q0 22 -19 37.5t-44 15.5q-26 0 -44.5 -15.5t-18.5 -37.5q0 -21 19 -36.5t45 -15.5q25 0 43.5 15.5t18.5 36.5zM219 504v2q0 21 -18 34.5t-42 13.5h-2q-25 0 -42 -15t-17 -35v-2q0 -20 18.5 -34.5t43.5 -14.5h2q23 0 40.5 15.5t17.5 35.5h-1zM388 76v66h-200v26
h200v188q0 20 -8.5 35t-22 25t-31 15t-35.5 5h-205q-18 0 -32.5 -8.5t-24.5 -22.5t-15 -31t-5 -33v-246q0 -19 6.5 -36.5t18.5 -30.5t28.5 -20.5t36.5 -7.5h219q14 0 27 6.5t22.5 17t15 24t5.5 28.5zM219 269h-33v34h34z" />
    <glyph glyph-name="igrave" unicode="&#xec;" horiz-adv-x="268" 
d="M231 452l-69 131h-140l126 -131h83zM260 0v140h-36v301h-199v-142h36v-161h-34v-138h233z" />
    <glyph glyph-name="iacute" unicode="&#xed;" horiz-adv-x="285" 
d="M239 578h-143l-69 -131h82zM260 0v140h-36v301h-199v-142h36v-161h-34v-138h233z" />
    <glyph glyph-name="icircumflex" unicode="&#xee;" horiz-adv-x="285" 
d="M299 452l-102 129h-106l-105 -129h95l63 56l63 -56h92zM260 0v140h-36v301h-199v-142h36v-161h-34v-138h233z" />
    <glyph glyph-name="idieresis" unicode="&#xef;" horiz-adv-x="276" 
d="M260 505q0 22 -18.5 37.5t-43.5 15.5q-26 0 -44.5 -15.5t-18.5 -37.5q0 -21 18.5 -36.5t44.5 -15.5q25 0 43.5 15.5t18.5 36.5zM132 504v2q0 21 -18 34.5t-42 13.5h-2q-25 0 -42 -15t-17 -35v-2q0 -20 18 -34.5t43 -14.5h2q23 0 40.5 15.5t17.5 35.5zM260 0v140h-36v301
h-199v-142h36v-161h-34v-138h233z" />
    <glyph glyph-name="eth" unicode="&#xf0;" horiz-adv-x="486" 
d="M486 622l-57 70l-57 -49q-12 5 -29 7l-248 -2l75 -163h17l-8 -6l55 -69h-125q-37 -5 -67.5 -31.5t-41.5 -64.5v-210q7 -42 39.5 -71t75.5 -33h249q38 11 61.5 41t34.5 65v398v18q0 34 -18 63q8 5 18.5 14t25.5 23zM254 410h-15l16 12zM252 162h-53v86h54z" />
    <glyph glyph-name="ntilde" unicode="&#xf1;" horiz-adv-x="493" 
d="M400 574h-69q-6 -11 -13 -19t-16 -11q-3 -2 -5.5 -2.5t-3.5 -0.5q-5 0 -12.5 3t-15.5 6h1q-11 5 -23.5 9.5t-28.5 4.5h-37q-51 -5 -79 -27t-36 -76q28 -6 39 -6q3 0 11.5 -1.5t15 -2.5t7.5 -1q1 1 4.5 7t9.5 13.5t11 7.5q9 0 20 -2t22 -5q13 -4 26.5 -6.5t29.5 -3.5
q3 -1 8 -1h10q24 0 44.5 9t36.5 24.5t27 36.5t16 44zM470 0v140h-39v229q-8 26 -28 45t-46 26h-94l-27 -25v25h-213v-141h38v-299h177v296h19v-296h213z" />
    <glyph glyph-name="ograve" unicode="&#xf2;" horiz-adv-x="424" 
d="M304 452l-70 131h-140l127 -131h83zM393 87v251q0 21 -8 40t-21.5 33t-32 22.5t-39.5 8.5h-173q-17 0 -33 -6.5t-28 -18t-19.5 -27t-7.5 -33.5v-264q0 -18 6 -34.5t17.5 -29.5t27 -21t33.5 -8h191q36 0 61.5 22.5t25.5 64.5zM220 137h-19v162h20z" />
    <glyph glyph-name="oacute" unicode="&#xf3;" horiz-adv-x="424" 
d="M315 583h-143l-69 -131h82zM393 87v253q0 21 -8 40t-21.5 33t-32 22.5t-39.5 8.5h-173q-17 0 -33 -6.5t-28 -18t-19.5 -27t-7.5 -33.5v-266q0 -18 6 -34.5t17.5 -29.5t27 -21t33.5 -8h191q36 0 61.5 22.5t25.5 64.5zM220 137h-19v164h20z" />
    <glyph glyph-name="ocircumflex" unicode="&#xf4;" horiz-adv-x="424" 
d="M362 452l-102 129h-106l-105 -129h95l63 56l63 -56h92zM393 87v252q0 21 -8 40t-21.5 33t-32 22.5t-39.5 8.5h-173q-17 0 -33 -6.5t-28 -18t-19.5 -27t-7.5 -33.5v-265q0 -18 6 -34.5t17.5 -29.5t27 -21t33.5 -8h191q36 0 61.5 22.5t25.5 64.5zM220 137h-19v163h20z" />
    <glyph glyph-name="otilde" unicode="&#xf5;" horiz-adv-x="424" 
d="M380 574h-69q-6 -11 -13 -19t-16 -11q-3 -2 -5.5 -2.5t-3.5 -0.5q-5 0 -12.5 3t-15.5 6h1q-11 5 -23.5 9.5t-28.5 4.5h-27q-51 -5 -84 -27t-41 -76q28 -6 39 -6q3 0 11.5 -1.5t15 -2.5t7.5 -1q1 1 4.5 7t9.5 13.5t11 7.5q9 0 20 -2t22 -5q13 -4 26.5 -6.5t29.5 -3.5
q3 -1 8 -1h10q24 0 44.5 9t36.5 24.5t27 36.5t16 44zM393 87v253q0 21 -8 40t-21.5 33t-32 22.5t-39.5 8.5h-173q-17 0 -33 -6.5t-28 -18t-19.5 -27t-7.5 -33.5v-266q0 -18 6 -34.5t17.5 -29.5t27 -21t33.5 -8h191q36 0 61.5 22.5t25.5 64.5zM220 137h-19v164h20z" />
    <glyph glyph-name="odieresis" unicode="&#xf6;" horiz-adv-x="424" 
d="M347 505v2q0 21 -18.5 34.5t-42.5 13.5h-2q-25 0 -42 -15t-17 -35v-2q0 -20 18.5 -34.5t43.5 -14.5h2q23 0 40.5 15.5t17.5 35.5zM206 505v2q0 21 -18 34.5t-42 13.5h-2q-25 0 -42 -15t-17 -35v-2q0 -20 18.5 -34.5t43.5 -14.5h2q23 0 40.5 15.5t17.5 35.5h-1zM393 87
v253q0 21 -8 40t-21.5 33t-32 22.5t-39.5 8.5h-173q-17 0 -33 -6.5t-28 -18t-19.5 -27t-7.5 -33.5v-266q0 -18 6 -34.5t17.5 -29.5t27 -21t33.5 -8h191q36 0 61.5 22.5t25.5 64.5zM220 137h-19v164h20z" />
    <glyph glyph-name="divide" unicode="&#xf7;" horiz-adv-x="2847" 
 />
    <glyph glyph-name="oslash" unicode="&#xf8;" horiz-adv-x="383" 
d="M392 455h-86l-13 -22h-187q-35 -5 -61.5 -29t-30.5 -62v-232q0 -40 23 -72l-46 -74h87l22 36h187q39 9 65 34.5t26 69.5v230q0 17 -6 31.5t-15 28.5zM206 140h-19v146h19v-146z" />
    <glyph glyph-name="ugrave" unicode="&#xf9;" horiz-adv-x="493" 
d="M323 467l-70 131h-140l127 -131h83zM471 0v142h-38v298h-177v-296h-20v296h-214v-141h40v-206q0 -15 3.5 -31.5t11 -30t20.5 -22.5t31 -9h110l19 18v-18h214z" />
    <glyph glyph-name="uacute" unicode="&#xfa;" horiz-adv-x="493" 
d="M347 598h-143l-69 -131h82zM471 0v142h-38v297h-177v-295h-20v295h-214v-141h40v-205q0 -15 3.5 -31.5t11 -30t20.5 -22.5t31 -9h110l19 18v-18h214z" />
    <glyph glyph-name="ucircumflex" unicode="&#xfb;" horiz-adv-x="493" 
d="M384 452l-102 129h-106l-105 -129h95l63 56l63 -56h92zM471 0v142h-38v298h-177v-296h-20v296h-214v-141h40v-206q0 -15 3.5 -31.5t11 -30t20.5 -22.5t31 -9h110l19 18v-18h214z" />
    <glyph glyph-name="udieresis" unicode="&#xfc;" horiz-adv-x="493" 
d="M367 499v2q0 21 -18.5 34.5t-42.5 13.5h-2q-25 0 -42 -15t-17 -35v-2q0 -20 18.5 -34.5t43.5 -14.5h2q23 0 40.5 15.5t17.5 35.5zM226 499v2q0 21 -18 34.5t-42 13.5h-2q-25 0 -42 -15t-17 -35v-2q0 -20 18.5 -34.5t43.5 -14.5h2q23 0 40.5 15.5t17.5 35.5h-1zM471 0v142
h-38v298h-177v-296h-20v296h-214v-141h40v-206q0 -15 3.5 -31.5t11 -30t20.5 -22.5t31 -9h110l19 18v-18h214z" />
    <glyph glyph-name="yacute" unicode="&#xfd;" horiz-adv-x="457" 
d="M326 503h-143l-69 -131h82zM442 291v146h-189l-26 -155l-24 155h-188v-146h41l84 -287l-5 -21h-43v-143h185l126 451h39z" />
    <glyph glyph-name="thorn" unicode="&#xfe;" horiz-adv-x="416" 
d="M413 93v264q0 33 -22 53.5t-50 28.5h-94l-29 -25v133h-215v-145h42v-425l-42 -2v-141h251v141l-36 2v42l22 -19h105q38 7 53 32t15 61zM235 143h-17v146h18z" />
    <glyph glyph-name="ydieresis" unicode="&#xff;" horiz-adv-x="457" 
d="M367 500v2q0 21 -18.5 34.5t-42.5 13.5h-2q-25 0 -42 -15t-17 -35v-2q0 -20 18.5 -34.5t43.5 -14.5h2q23 0 40.5 15.5t17.5 35.5zM226 500v2q0 21 -18 34.5t-42 13.5h-2q-25 0 -42 -15t-17 -35v-2q0 -20 18.5 -34.5t43.5 -14.5h2q23 0 40.5 15.5t17.5 35.5h-1zM442 291
v146h-189l-26 -155l-24 155h-188v-146h41l84 -287l-5 -21h-43v-143h185l126 451h39z" />
    </font>
</defs>
</svg>
